<svg width="195" height="29" viewBox="0 0 195 29" fill="none" xmlns="http://www.w3.org/2000/svg">
<path d="M13.3851 29C11.167 29 9.22428 28.6353 7.55684 27.9058C5.88435 27.1814 4.48719 26.1561 3.36539 24.8298C2.2436 23.5035 1.40225 21.9477 0.841351 20.1623C0.28045 18.3769 0 16.4384 0 14.347C0 12.3065 0.305945 10.419 0.917838 8.68471C1.52972 6.95029 2.41696 5.43274 3.57956 4.13189C4.73705 2.83112 6.1444 1.81604 7.8016 1.08655C9.45881 0.362183 11.3327 0 13.4233 0C14.3412 0 15.3687 0.0943482 16.5057 0.283122C17.6378 0.476937 18.7391 0.772781 19.81 1.17073C20.8807 1.56349 21.7731 2.07867 22.4869 2.71637L19.7334 6.23617C19.0196 5.41994 18.0839 4.79504 16.9264 4.36148C15.7638 3.92784 14.6599 3.71106 13.6146 3.71106C12.1359 3.71106 10.8866 4.00946 9.86677 4.60635C8.84689 5.20828 8.03106 6.01931 7.41917 7.0396C6.80728 8.05981 6.36621 9.18717 6.09595 10.4216C5.8308 11.6612 5.69823 12.9314 5.69823 14.2322C5.69823 16.5277 6.02457 18.4968 6.67725 20.1393C7.32484 21.787 8.26048 23.0495 9.48433 23.9269C10.7081 24.8094 12.1741 25.2507 13.8823 25.2507C14.953 25.2507 16.0876 25.1027 17.2859 24.8069C18.4842 24.5161 19.7462 24.0263 21.072 23.3378L22.64 26.1689C21.6456 26.8065 20.6768 27.3345 19.7334 27.7528C18.7901 28.1762 17.8085 28.4899 16.7887 28.6939C15.7689 28.898 14.6344 29 13.3851 29ZM42.6793 28.5409V16.0303H30.9387V28.5409H25.6611V2.86938C25.6611 2.84385 25.6153 2.65259 25.5234 2.29553C25.4368 1.93839 25.3552 1.56861 25.2787 1.18602C25.2022 0.80343 25.1513 0.586647 25.1257 0.535592H30.9387V12.2428H42.6793V0.535592H47.9569V28.5409H42.6793ZM52.9667 2.86938L52.3931 0.535592H69.9849V4.32323H58.206V12.2428H67.2314V16.0303H58.206V24.7533H69.9849V28.5409H52.9667V2.86938ZM85.5419 29C83.3238 29 81.3816 28.6353 79.714 27.9058C78.0415 27.1814 76.6444 26.1561 75.5225 24.8298C74.4007 23.5035 73.5594 21.9477 72.9985 20.1623C72.4376 18.3769 72.1571 16.4384 72.1571 14.347C72.1571 12.3065 72.4631 10.419 73.075 8.68471C73.6869 6.95029 74.5741 5.43274 75.7367 4.13189C76.8942 2.83112 78.3015 1.81604 79.9588 1.08655C81.616 0.362183 83.4902 0 85.5803 0C86.4986 0 87.5257 0.0943482 88.6632 0.283122C89.795 0.476937 90.8965 0.772781 91.9668 1.17073C93.0378 1.56349 93.9305 2.07867 94.6441 2.71637L91.8908 6.23617C91.1765 5.41994 90.2414 4.79504 89.0839 4.36148C87.9209 3.92784 86.817 3.71106 85.7715 3.71106C84.2933 3.71106 83.0438 4.00946 82.024 4.60635C81.0041 5.20828 80.1882 6.01931 79.5763 7.0396C78.9644 8.05981 78.5259 9.18717 78.2607 10.4216C77.9905 11.6612 77.8553 12.9314 77.8553 14.2322C77.8553 16.5277 78.1817 18.4968 78.8344 20.1393C79.4819 21.787 80.4177 23.0495 81.6416 23.9269C82.8655 24.8094 84.3309 25.2507 86.0395 25.2507C87.1105 25.2507 88.2448 25.1027 89.4431 24.8069C90.6413 24.5161 91.9036 24.0263 93.229 23.3378L94.7968 26.1689C93.8025 26.8065 92.8339 27.3345 91.8908 27.7528C90.9469 28.1762 89.9654 28.4899 88.9455 28.6939C87.9265 28.898 86.7914 29 85.5419 29ZM97.7797 2.86938L97.2445 0.535592H103.057V13.0462L112.389 0.535592H117.284L108.182 12.7784L118.087 28.5409H111.968L103.057 14.347V28.5409H97.7797V2.86938ZM131.511 28.9618C129.369 28.9618 127.475 28.5919 125.828 27.8522C124.185 27.1126 122.804 26.0847 121.682 24.7686C120.56 23.4576 119.711 21.9221 119.135 20.1623C118.564 18.4023 118.278 16.5149 118.278 14.5C118.278 12.4595 118.564 10.5644 119.135 8.81475C119.711 7.07017 120.565 5.5475 121.698 4.24673C122.834 2.94588 124.224 1.93079 125.866 1.2013C127.513 0.476937 129.407 0.114754 131.548 0.114754C133.741 0.114754 135.671 0.471815 137.339 1.18602C139.012 1.90014 140.414 2.90763 141.546 4.2084C142.682 5.50924 143.545 7.0396 144.131 8.79946C144.717 10.5593 145.01 12.4851 145.01 14.5765C145.01 16.6425 144.704 18.5478 144.093 20.2923C143.481 22.042 142.594 23.5673 141.43 24.8681C140.273 26.1689 138.858 27.1764 137.186 27.8905C135.518 28.6047 133.627 28.9618 131.511 28.9618ZM131.664 25.3272C133.142 25.3272 134.371 25.0134 135.35 24.3861C136.334 23.7636 137.12 22.9348 137.706 21.8992C138.292 20.8688 138.713 19.7286 138.968 18.4789C139.223 17.2291 139.351 15.9793 139.351 14.7296C139.351 13.4798 139.228 12.2096 138.984 10.919C138.744 9.63354 138.331 8.44752 137.744 7.36097C137.157 6.27947 136.36 5.40722 135.35 4.74407C134.346 4.08092 133.091 3.7493 131.587 3.7493C130.109 3.7493 128.877 4.06052 127.893 4.68285C126.914 5.31031 126.131 6.14687 125.544 7.19261C124.958 8.23834 124.537 9.38611 124.283 10.6359C124.028 11.8857 123.9 13.1227 123.9 14.347C123.9 15.5968 124.028 16.8644 124.283 18.1499C124.537 19.4405 124.958 20.6265 125.544 21.7079C126.131 22.7945 126.921 23.6693 127.915 24.3324C128.91 24.9956 130.159 25.3272 131.664 25.3272ZM147.726 0.535592H153.73V19.1675C153.73 21.0295 154.29 22.5215 155.413 23.6438C156.534 24.7661 158.026 25.3272 159.887 25.3272C161.774 25.3272 163.27 24.7788 164.376 23.6821C165.488 22.5853 166.044 21.0805 166.044 19.1675V0.535592H170.365V17.905C170.365 20.5831 169.881 22.7307 168.912 24.3477C167.943 25.9699 166.631 27.1432 164.973 27.8675C163.316 28.597 161.442 28.9618 159.352 28.9618C155.808 28.9618 153.085 28.0052 151.183 26.0924C149.286 24.1794 148.338 21.4503 148.338 17.905V2.83112L147.726 0.535592ZM181.027 28.5409V4.32323H173.264V0.535592H194.374V4.32323H186.496V28.5409H181.027Z" fill="#D7BE78"/>
</svg>
