<svg width="114" height="116" viewBox="0 0 114 116" fill="none" xmlns="http://www.w3.org/2000/svg">
<path d="M59.9531 32.8395C53.6632 32.8395 48.4293 37.4024 47.3575 43.3908H40.4877L37.4739 34.3468H29.8184V38.8689H34.2164L45.0098 71.2633C43.1417 72.2883 41.8719 74.2744 41.8719 76.5523C41.8719 79.8769 44.576 82.5816 47.8987 82.5816C51.2222 82.5816 53.9254 79.8769 53.9254 76.5523C53.9254 76.0307 53.8524 75.5279 53.7275 75.045H67.6843C67.5602 75.5279 67.4863 76.0307 67.4863 76.5523C67.4863 79.8769 70.1904 82.5816 73.5131 82.5816C76.8367 82.5816 79.5399 79.8769 79.5399 76.5523C79.5399 73.2277 76.8367 70.5229 73.5131 70.5229H49.5283L48.021 66.0009H76.6492L84.1825 43.3908H72.5478C71.476 37.4024 66.2421 32.8395 59.9531 32.8395ZM73.5131 73.5376C75.1753 73.5376 76.5269 74.89 76.5269 76.5523C76.5269 78.2146 75.1753 79.567 73.5131 79.567C71.8518 79.567 70.5001 78.2146 70.5001 76.5523C70.5001 74.89 71.8518 73.5376 73.5131 73.5376ZM59.9531 35.8542C65.3524 35.8542 69.7469 40.2495 69.7469 45.6519C69.7469 51.0541 65.3524 55.4496 59.9531 55.4496C54.5528 55.4496 50.1593 51.0541 50.1593 45.6519C50.1593 40.2495 54.5528 35.8542 59.9531 35.8542ZM50.9125 76.5523C50.9125 78.2146 49.5609 79.567 47.8987 79.567C46.2373 79.567 44.8857 78.2146 44.8857 76.5523C44.8857 74.89 46.2373 73.5376 47.8987 73.5376C49.5609 73.5376 50.9125 74.89 50.9125 76.5523ZM73.3908 61.4789H46.5145L41.9942 47.9128H47.3575C48.4293 53.9012 53.6632 58.4642 59.9531 58.4642C66.2421 58.4642 71.476 53.9012 72.5478 47.9128H77.9111L73.3908 61.4789Z" fill="#D7BE78"/>
<path d="M67.6688 43.3905L64.4719 40.1931L58.4452 46.2225L55.4322 43.2078L52.2354 46.4052L58.4452 52.6172L67.6688 43.3905Z" fill="#D7BE78"/>
<path d="M9.99886 41.9787C9.76216 42.6732 9.44096 43.2438 9.03706 43.6895C8.62877 44.1347 8.15887 44.4607 7.62562 44.669C7.09149 44.8799 6.51426 44.9768 5.8939 44.9594C5.27705 44.9438 4.64172 44.8242 3.9888 44.6009C3.34908 44.3824 2.79207 44.0848 2.3169 43.709C1.83821 43.3314 1.45807 42.8922 1.17472 42.3909C0.891381 41.8895 0.725083 41.3416 0.675806 40.7476C0.624769 40.1494 0.710117 39.5236 0.932744 38.8703C1.03042 38.583 1.17121 38.272 1.35424 37.9367C1.53375 37.6008 1.74231 37.286 1.98077 36.9934C2.21836 36.7002 2.47617 36.4769 2.75336 36.3233L3.55675 37.5602C3.22765 37.696 2.93286 37.9221 2.67239 38.2379C2.41105 38.5538 2.22539 38.8762 2.11276 39.2045C1.95525 39.6664 1.91564 40.0905 1.99396 40.4761C2.07315 40.8585 2.23948 41.1998 2.4929 41.5C2.74897 41.8012 3.05607 42.0593 3.41421 42.2734C3.77146 42.4909 4.15334 42.6694 4.56076 42.8084C5.2788 43.0539 5.92998 43.1616 6.5125 43.1313C7.09767 43.1059 7.5922 42.9485 7.9961 42.6586C8.40088 42.3687 8.69388 41.9571 8.87691 41.4232C8.9913 41.0878 9.06788 40.7168 9.10747 40.3106C9.14267 39.906 9.12331 39.4588 9.05028 38.9671L10.0992 38.781C10.1951 39.1612 10.2567 39.5209 10.2866 39.8596C10.32 40.1992 10.3121 40.5405 10.2637 40.8828C10.2197 41.2231 10.1317 41.5882 9.99886 41.9787ZM19.651 25.4786L16.4321 22.8808L13.9947 25.9022L17.2135 28.5006L16.118 29.8592L9.51576 24.5299C9.51048 24.5256 9.45153 24.4969 9.34153 24.445C9.23066 24.3925 9.11714 24.3363 9.00363 24.2762C8.88924 24.2167 8.82413 24.1849 8.8083 24.1816L10.0129 22.6877L13.0206 25.1157L15.458 22.0943L12.4495 19.6663L13.5459 18.3072L20.7465 24.12L19.651 25.4786ZM25.1234 9.75421L24.5664 9.1895L29.5636 6.21307L30.2042 7.28888L26.8604 9.28096L28.1971 11.5267L30.7586 10.0009L31.3992 11.0772L28.8377 12.6031L30.3134 15.0819L33.6572 13.0898L34.2978 14.1661L29.4633 17.0458L25.1234 9.75421ZM48.3435 9.86997C47.6228 10.0084 46.969 10.0122 46.3803 9.88238C45.7917 9.74884 45.276 9.50218 44.8307 9.14143C44.3828 8.78225 44.0133 8.32845 43.7202 7.78108C43.4281 7.23695 43.2169 6.62631 43.0867 5.94804C42.9591 5.28439 42.9415 4.65264 43.0321 4.05389C43.1228 3.45135 43.3155 2.90235 43.6111 2.40799C43.9059 1.91309 44.2993 1.49715 44.7903 1.15964C45.2839 0.818349 45.87 0.582526 46.5475 0.452716C46.845 0.395382 47.1855 0.363471 47.5665 0.355898C47.9466 0.345622 48.3233 0.370502 48.6955 0.432162C49.0686 0.493281 49.3898 0.606325 49.6599 0.771294L48.985 2.08239C48.7043 1.86387 48.362 1.71999 47.9581 1.65022C47.5551 1.58045 47.1828 1.57829 46.8423 1.64373C46.3627 1.73568 45.9755 1.91147 45.679 2.17055C45.3869 2.42909 45.173 2.7428 45.0375 3.11114C44.9029 3.48326 44.8307 3.87756 44.8228 4.29512C44.8114 4.71322 44.8457 5.13348 44.9267 5.55645C45.0701 6.30178 45.2989 6.92055 45.6139 7.41221C45.9263 7.90819 46.3082 8.25976 46.7605 8.46746C47.2119 8.67515 47.7152 8.726 48.2687 8.61945C48.6163 8.55291 48.9771 8.43554 49.3493 8.26842C49.718 8.09803 50.0972 7.86005 50.4871 7.55337L51.169 8.37172C50.8857 8.64324 50.605 8.87584 50.3252 9.06942C50.0471 9.26635 49.747 9.42911 49.4258 9.55676C49.1082 9.68766 48.7474 9.79206 48.3435 9.86997ZM63.2085 0.788601L63.1495 0L65.0511 0.29532L64.4175 4.37841L68.0992 0.76913L69.6955 1.01685L66.1017 4.55257L68.5374 10.2042L66.5399 9.89374L64.3515 4.80733L63.6317 9.44214L61.907 9.17435L63.2085 0.788601ZM81.3653 15.6806C80.7476 15.3334 80.2636 14.9196 79.9117 14.4393C79.5562 13.9574 79.3239 13.4371 79.2156 12.8783C79.1039 12.3174 79.1083 11.7376 79.2297 11.1378C79.3485 10.5364 79.5711 9.94621 79.8967 9.36644C80.2258 8.78008 80.6165 8.28247 81.0662 7.87195C81.5132 7.4598 82.0068 7.15853 82.5453 6.96814C83.083 6.77775 83.647 6.71123 84.2357 6.7691C84.8306 6.82535 85.436 7.02764 86.0537 7.37488C86.6837 7.72916 87.1818 8.14455 87.5487 8.62053C87.9139 9.0997 88.1533 9.61794 88.2668 10.1755C88.3838 10.7348 88.3838 11.3157 88.2685 11.9188C88.1541 12.5219 87.9271 13.1245 87.5883 13.7259C87.2539 14.3214 86.8571 14.8201 86.3995 15.222C85.9393 15.6271 85.436 15.9219 84.8878 16.1074C84.344 16.2945 83.7746 16.3556 83.1798 16.2907C82.5814 16.2274 81.9769 16.0241 81.3653 15.6806ZM82.0024 14.6579C82.4274 14.8969 82.8322 15.0067 83.2168 14.9867C83.5978 14.965 83.9585 14.852 84.2964 14.6481C84.6335 14.4474 84.9388 14.1883 85.2133 13.8697C85.4896 13.548 85.7281 13.2077 85.9296 12.8486C86.132 12.4894 86.3027 12.1044 86.4426 11.6938C86.5817 11.2833 86.6547 10.8739 86.66 10.466C86.6688 10.0604 86.5817 9.67956 86.4004 9.32418C86.2174 8.97206 85.9076 8.67353 85.4729 8.4296C85.0479 8.19053 84.6431 8.08073 84.2586 8.10074C83.8741 8.12075 83.5124 8.23434 83.1719 8.44096C82.8366 8.64649 82.5295 8.90885 82.2505 9.22902C81.976 9.5476 81.7393 9.88291 81.5413 10.2356C81.3389 10.5947 81.1691 10.9809 81.0336 11.3936C80.8998 11.808 80.8286 12.2179 80.8206 12.6236C80.8145 13.0314 80.9025 13.41 81.0829 13.7605C81.2615 14.1143 81.5677 14.4128 82.0024 14.6579ZM100.301 18.6755L101.572 20.2002L96.841 24.1438C96.3693 24.537 96.1106 24.9951 96.0658 25.517C96.0182 26.0417 96.1907 26.5399 96.584 27.012C96.9818 27.4896 97.4376 27.7547 97.9515 27.806C98.4627 27.8553 98.9617 27.6773 99.4474 27.2722L104.177 23.3287L105.094 24.4288L100.684 28.1046C100.004 28.6714 99.355 29.003 98.7381 29.0982C98.1239 29.1961 97.5493 29.1106 97.0143 28.8413C96.4793 28.5768 95.9892 28.1782 95.5448 27.6454C94.796 26.7454 94.4625 25.8518 94.5461 24.9631C94.6314 24.0777 95.1242 23.2599 96.0235 22.5103L99.8504 19.3202L100.301 18.6755ZM103.816 42.0317L111.384 39.4344L110.551 37.0031L111.735 36.5964L114 43.2027L112.816 43.6094L111.97 41.1425L104.402 43.7392L103.816 42.0317ZM3.74067 78.5789C3.4978 77.8708 3.401 77.2104 3.45116 76.5976C3.50131 75.9843 3.67642 75.4272 3.97825 74.9263C4.27567 74.4228 4.67869 73.9846 5.18906 73.6109C5.69503 73.2382 6.28196 72.9375 6.94896 72.7087C7.59836 72.4858 8.23368 72.3766 8.85317 72.382C9.47001 72.3879 10.0508 72.5042 10.5946 72.7304C11.1349 72.9575 11.6109 73.295 12.0245 73.7418C12.4354 74.1935 12.7549 74.7522 12.9836 75.4191C13.0831 75.7095 13.1649 76.047 13.2265 76.4305C13.2925 76.8129 13.3215 77.197 13.3119 77.582C13.3031 77.9671 13.2362 78.3074 13.1121 78.6021L11.6883 78.1105C11.8705 77.7957 11.9664 77.4284 11.9761 77.0087C11.9893 76.5911 11.9391 76.2168 11.8256 75.8853C11.6637 75.4136 11.4314 75.048 11.1287 74.7884C10.826 74.5293 10.4784 74.3579 10.0868 74.2745C9.69526 74.1912 9.28784 74.174 8.86547 74.2237C8.43957 74.274 8.02072 74.3703 7.60626 74.5126C6.87502 74.7635 6.28284 75.0816 5.83055 75.4656C5.37561 75.855 5.07465 76.2925 4.92858 76.7783C4.78163 77.2646 4.80189 77.7789 4.98844 78.323C5.10547 78.6649 5.27792 79.011 5.50494 79.361C5.72845 79.7125 6.02149 80.0609 6.38403 80.4065L5.65455 81.2189C5.34304 80.9701 5.07025 80.7181 4.83354 80.4627C4.59772 80.2074 4.38917 79.9294 4.20879 79.6282C4.0328 79.3258 3.87706 78.9759 3.74067 78.5794V78.5789ZM14.784 96.8977L18.0592 94.2489L15.5716 91.1705L12.2964 93.8202L11.1789 92.4363L17.9026 86.9992C17.9078 86.9949 17.9492 86.9425 18.0266 86.8424C18.1014 86.7451 18.1806 86.6439 18.2633 86.5401C18.3461 86.4411 18.3918 86.3827 18.4006 86.3653L19.6308 87.8879L16.5668 90.3659L19.0544 93.4452L22.1184 90.9662L23.2368 92.3501L15.9015 98.2807L14.784 96.8977ZM30.6284 99.2825L30.8668 98.5104L35.9591 101.54L35.3079 102.635L31.8981 100.606L30.5342 102.899L33.1477 104.454L32.4939 105.554L29.8804 103.998L28.3792 106.525L31.789 108.554L31.1379 109.649L26.2084 106.717L30.6284 99.2825ZM47.1081 114.982C46.3733 114.84 45.7521 114.596 45.2452 114.249C44.7375 113.901 44.3415 113.471 44.0573 112.961C43.7686 112.452 43.5882 111.884 43.5178 111.255C43.4466 110.63 43.4774 109.972 43.6094 109.28C43.7387 108.605 43.9605 108 44.2728 107.463C44.5844 106.931 44.9742 106.484 45.4405 106.125C45.906 105.769 46.4349 105.523 47.028 105.387C47.6246 105.254 48.2678 105.254 48.9595 105.387C49.2613 105.445 49.5939 105.543 49.9582 105.679C50.3225 105.811 50.6701 105.977 50.9992 106.177C51.3292 106.376 51.5914 106.603 51.785 106.857L50.6507 107.849C50.4686 107.534 50.1976 107.269 49.8385 107.052C49.483 106.834 49.1328 106.69 48.7888 106.624C48.2986 106.53 47.8666 106.55 47.4908 106.685C47.116 106.819 46.7948 107.035 46.5282 107.334C46.2607 107.632 46.0442 107.976 45.877 108.368C45.7089 108.762 45.584 109.174 45.5013 109.604C45.3552 110.364 45.3376 111.036 45.4458 111.62C45.5576 112.209 45.7873 112.687 46.1366 113.056C46.4851 113.425 46.9417 113.663 47.5058 113.771C47.8604 113.84 48.2467 113.863 48.6629 113.839C49.0783 113.82 49.527 113.738 50.0066 113.594L50.3489 114.632C49.9784 114.778 49.6238 114.891 49.2842 114.969C48.9454 115.048 48.6005 115.09 48.2502 115.096C47.9 115.099 47.519 115.06 47.1081 114.982ZM61.4732 106.874L61.1767 106.124L63.1099 105.825L63.754 109.989L66.217 105.344L67.8458 105.092L65.4436 109.639L69.5547 114.375L67.5184 114.69L63.8209 110.423L64.5513 115.149L62.794 115.421L61.4732 106.874ZM84.5692 108.431C83.9383 108.784 83.3214 108.988 82.7178 109.042C82.1106 109.096 81.5343 109.023 80.9913 108.822C80.4431 108.621 79.9398 108.308 79.4831 107.885C79.0229 107.463 78.6269 106.958 78.297 106.369C77.9591 105.767 77.732 105.163 77.6159 104.555C77.4944 103.948 77.4944 103.36 77.6132 102.79C77.732 102.218 77.9722 101.692 78.3365 101.209C78.6991 100.724 79.1954 100.305 79.8245 99.9515C80.4678 99.5906 81.0934 99.3758 81.7015 99.308C82.3113 99.2429 82.8903 99.308 83.4385 99.5025C83.9832 99.698 84.4874 100.006 84.9511 100.425C85.4148 100.845 85.8188 101.362 86.1637 101.977C86.5051 102.585 86.7295 103.197 86.8386 103.812C86.9469 104.426 86.9363 105.021 86.8069 105.595C86.6802 106.168 86.4321 106.697 86.0625 107.182C85.6876 107.666 85.1896 108.083 84.5692 108.431ZM84.0122 107.338C84.4469 107.094 84.7584 106.799 84.9458 106.453C85.1298 106.109 85.223 105.738 85.2274 105.338C85.2257 104.937 85.1597 104.532 85.0312 104.124C84.8992 103.713 84.7311 103.324 84.5261 102.959C84.3184 102.59 84.0729 102.237 83.7887 101.899C83.5071 101.559 83.1903 101.278 82.8384 101.058C82.4864 100.836 82.1089 100.71 81.7068 100.68C81.3029 100.654 80.8778 100.765 80.4335 101.015C80.0014 101.257 79.6925 101.552 79.5051 101.897C79.3177 102.242 79.2262 102.617 79.2288 103.022C79.2271 103.425 79.2922 103.833 79.4233 104.244C79.5553 104.65 79.7225 105.033 79.924 105.393C80.1316 105.762 80.3771 106.115 80.6614 106.452C80.9491 106.788 81.2694 107.066 81.6214 107.288C81.9698 107.511 82.3456 107.637 82.7486 107.668C83.1499 107.696 83.5705 107.586 84.0122 107.338ZM90.7438 91.8184L92.0391 90.2655L96.8568 94.2911C97.3364 94.6926 97.8424 94.8704 98.3747 94.8246C98.9062 94.7744 99.3735 94.5077 99.7765 94.0253C100.182 93.5394 100.364 93.0341 100.322 92.5094C100.277 91.9874 100.009 91.5208 99.5152 91.108L94.6983 87.0821L95.6328 85.9624L100.121 89.7136C100.814 90.2928 101.265 90.8835 101.473 91.4865C101.683 92.086 101.703 92.6776 101.532 93.2594C101.361 93.8466 101.05 94.4117 100.598 94.9523C99.8346 95.8678 98.9995 96.3651 98.0967 96.4435C97.193 96.5218 96.2822 96.1776 95.3635 95.4109L91.4698 92.1564L90.7438 91.8184ZM109.78 78.4345L102.068 75.7755L101.217 78.2462L100.012 77.8309L102.329 71.105L103.534 71.5199L102.668 74.0323L110.381 76.6912L109.78 78.4345ZM3.59876e-07 59.1586C3.59876e-07 57.1682 1.61206 55.5542 3.60162 55.5548C5.59206 55.5548 7.20501 57.1682 7.20501 59.1586C7.20501 61.149 5.59206 62.763 3.60162 62.763C1.61206 62.763 -0.000879589 61.1496 3.59876e-07 59.1586ZM106.416 59.1586C106.416 57.1682 108.029 55.5542 110.018 55.5548C112.008 55.5548 113.622 57.1682 113.622 59.1586C113.622 61.149 112.009 62.763 110.018 62.763C108.029 62.763 106.416 61.1496 106.416 59.1586Z" fill="#D7BE78"/>
</svg>
